{"title":"The.Wolverine.2013 HDcam XVID AC3 BHRG","uid":9104059,"size":1487255080,"categoryP":"video","categoryS":"movies","magnet":"?xt=urn:btih:ea402a09957a7918ed43ac016334e8b680d62362&amp;dn=The.Wolverine.2013+HDcam+XVID+AC3+BHRG&amp;tr=udp%3A%2F%2Ftracker.openbittorrent.com%3A80&amp;tr=udp%3A%2F%2Fopen.demonii.com%3A1337&amp;tr=udp%3A%2F%2Ftracker.coppersurfer.tk%3A6969&amp;tr=udp%3A%2F%2Fexodus.desync.com%3A6969","seeders":1,"leechers":0,"uploader":"xxxlavalxxx","files":-1,"time":1382825699,"description":"\n &lt;a href=&quot;\nhttp://www.imdb.com/title/tt1430132/&quot; rel=&quot;nofollow&quot; target=&quot;_NEW&quot;&gt;\nhttp://www.imdb.com/title/tt1430132/&lt;/a&gt;\n\n\n\nSummoned to Japan by an old acquaintance, Wolverine becomes embroiled in a conflict that forces him to confront his own demons. \n\n\n\nDirector:\n James Mangold \n\nWriters:\n Mark Bomback (screenplay), Scott Frank (screenplay) \n\nStars:\n Hugh Jackman, Tao Okamoto, Rila Fukushima\n\nGenres:\n  Action |  Adventure |  Fantasy |  Sci-Fi \n\nCountry:\n USA  \n\n\n\nFormat                                   : AVI\nFormat/Info                              : Audio Video Interleave\nFile size                                : 1.37 GiB\nDuration                                 : 2h 6mn\nOverall bit rate                         : 1 556 Kbps\nWriting library                          : VirtualDub build 30091/release\n\nVideo\nID                                       : 0\nFormat                                   : MPEG-4 Visual\nFormat profile                           : Advanced Simple@L5\nFormat settings, BVOP                    : 2\nFormat settings, QPel                    : No\nFormat settings, GMC                     : No warppoints\nFormat settings, Matrix                  : Default (H.263)\nMuxing mode                              : Packed bitstream\nCodec ID                                 : XVID\nCodec ID/Hint                            : XviD\nDuration                                 : 2h 6mn\nBit rate                                 : 1 355 Kbps\nWidth                                    : 640 pixels\nHeight                                   : 272 pixels\nDisplay aspect ratio                     : 2.35:1\nFrame rate                               : 23.976 fps\nColor space                              : YUV\nChroma subsampling                       : 4:2:0\nBit depth                                : 8 bits\nScan type                                : Progressive\nCompression mode                         : Lossy\nBits/(Pixel*Frame)                       : 0.325\nStream size                              : 1.19 GiB (87%)\nWriting library                          : XviD 1.2.1 (UTC 2008-12-04)\n\nAudio\nID                                       : 1\nFormat                                   : AC-3\nFormat/Info                              : Audio Coding 3\nMode extension                           : CM (complete main)\nFormat settings, Endianness              : Big\nCodec ID                                 : 2000\nDuration                                 : 2h 6mn\nBit rate mode                            : Constant\nBit rate                                 : 192 Kbps\nChannel count                            : 2 channels\nChannel positions                        : Front: L R\nSampling rate                            : 48.0 KHz\nBit depth                                : 16 bits\nCompression mode                         : Lossy\nStream size                              : 173 MiB (12%)\n\nSource-- smy &amp; UNiQUE \n\n\n &lt;a href=&quot;\nhttp://i.imgur.com/gdUXflI.png&quot; rel=&quot;nofollow&quot; target=&quot;_NEW&quot;&gt;\nhttp://i.imgur.com/gdUXflI.png&lt;/a&gt; &lt;a href=&quot;\nhttp://i.imgur.com/fZTRfX0.png&quot; rel=&quot;nofollow&quot; target=&quot;_NEW&quot;&gt;\nhttp://i.imgur.com/fZTRfX0.png&lt;/a&gt; &lt;a href=&quot;\nhttp://i.imgur.com/PGqvOzS.png&quot; rel=&quot;nofollow&quot; target=&quot;_NEW&quot;&gt;\nhttp://i.imgur.com/PGqvOzS.png&lt;/a&gt; &lt;a href=&quot;\nhttp://i.imgur.com/oOPKxLq.png&quot; rel=&quot;nofollow&quot; target=&quot;_NEW&quot;&gt;\nhttp://i.imgur.com/oOPKxLq.png&lt;/a&gt;","torrent":{"xt":"urn:btih:ea402a09957a7918ed43ac016334e8b680d62362","amp;dn":"The.Wolverine.2013+HDcam+XVID+AC3+BHRG","amp;tr":["udp%3A%2F%2Ftracker.openbittorrent.com%3A80","udp%3A%2F%2Fopen.demonii.com%3A1337","udp%3A%2F%2Ftracker.coppersurfer.tk%3A6969","udp%3A%2F%2Fexodus.desync.com%3A6969"],"infoHash":"ea402a09957a7918ed43ac016334e8b680d62362","infoHashBuffer":{"type":"Buffer","data":[234,64,42,9,149,122,121,24,237,67,172,1,99,52,232,182,128,214,35,98]},"announce":[],"urlList":[]}}